<svg width="150" height="150" viewBox="0 0 150 150" fill="none" xmlns="http://www.w3.org/2000/svg">
<g id="emojione-v1:soccer-ball">
<path id="Vector" d="M134.254 34.4763C156.921 67.4761 148.549 112.605 115.547 135.253C82.5471 157.923 37.4188 149.548 14.7471 116.543C-7.92465 83.5434 0.455046 38.4147 33.457 15.7428C66.4566 -6.92204 111.585 1.45538 134.233 34.4529" fill="#F1ECD6"/>
<path id="Vector_2" d="M82.7204 99.7173L52.636 103.066L34.6876 78.6938L46.8329 50.9673L76.922 47.611L94.8681 71.9954L82.7204 99.7173ZM143.616 54.3751C141.469 46.8779 138.905 39.3347 134.5 32.8993C128.154 23.669 118.971 16.4833 109.167 11.0649L99.6095 32.8993L117.556 57.279L143.613 54.3728M43.3149 27.504L52.6571 6.1665C38.4311 10.5335 25.8909 19.167 16.7345 30.8978L43.0618 27.9681C43.1509 27.8087 43.2212 27.6563 43.3149 27.504ZM123.361 100.538L111.22 128.267L115.936 134.67C115.99 134.623 116.06 134.599 116.124 134.552C129.481 125.384 138.731 112.507 143.599 98.2759L123.349 100.533M16.7532 92.9509L4.78369 94.2868C8.68838 109.116 17.154 121.966 28.5071 131.466L34.697 117.333L16.7532 92.9509Z" fill="#404041"/>
</g>
</svg>
