<svg width="177" height="32" viewBox="0 0 177 32" fill="none" xmlns="http://www.w3.org/2000/svg">
<g id="Public logo YDA 3">
<rect id="Rectangle 87" x="1.68555" y="1.68359" width="13.4857" height="25.2632" rx="2" fill="#FECD01"/>
<path id="Vector" d="M3.787 1.68359H13.0918C14.4755 1.91986 15.1673 2.68316 15.1673 3.97352C15.1739 10.916 15.1723 17.8551 15.1623 24.791C15.1599 27.019 13.7804 27.3808 11.8808 27.2222C11.7734 27.2123 11.7355 27.2585 11.7668 27.361L12.5891 30.1242C12.6518 30.3374 12.599 30.3721 12.4306 30.2283L9.02268 27.3263C8.95168 27.2668 8.86995 27.2379 8.77749 27.2395C7.17591 27.2709 5.58011 27.2726 3.99009 27.2445C1.90226 27.2073 1.68926 25.8814 1.68926 24.0574C1.68431 17.6304 1.68431 11.2035 1.68926 4.77648C1.68926 3.04912 1.95427 1.95373 3.787 1.68359ZM2.50904 10.9226L2.54867 24.9C2.54867 24.9191 2.55649 24.9374 2.57043 24.9509C2.58436 24.9643 2.60326 24.9719 2.62297 24.9719L14.2063 24.9744C14.2889 24.9744 14.3294 24.9339 14.3277 24.853L14.3178 13.3315L14.3203 4.13213C14.3203 4.05282 14.2807 4.01317 14.2014 4.01317L2.59325 4.01069C2.57157 4.01069 2.55078 4.01931 2.53545 4.03464C2.52013 4.04998 2.51152 4.07078 2.51152 4.09247L2.50904 10.9226Z" fill="black"/>
<path id="Vector_2" d="M68.8419 3.6984C69.3286 3.37023 69.7694 3.28593 70.1644 3.44549C71.4679 3.97388 71.9846 4.75066 71.9846 6.1642C71.9814 11.6046 71.9972 17.0435 72.032 22.481C72.0415 24.3371 73.3118 24.3235 73.8379 25.3397C74.6722 26.9384 73.3308 28.1939 71.6717 28.1668C68.7187 28.1126 67.5242 24.599 67.5195 22.21C67.5068 16.878 67.5037 11.5429 67.51 6.20485C67.51 4.87259 67.766 4.42549 68.8419 3.6984Z" fill="black"/>
<path id="Vector_3" d="M29.2371 14.1344C29.2436 14.1482 29.254 14.1598 29.2672 14.1678C29.2804 14.1759 29.2959 14.1802 29.3119 14.1802C29.328 14.1802 29.3439 14.1759 29.358 14.1678C29.3722 14.1598 29.3839 14.1482 29.3919 14.1344L34.6908 4.26634C34.8002 4.06206 34.9527 3.88187 35.1384 3.7372C35.3241 3.59253 35.5391 3.48653 35.7696 3.42593C36.0002 3.36532 36.2414 3.35142 36.4778 3.38512C36.7143 3.41882 36.9409 3.49938 37.1432 3.62169L37.6028 3.89668C38.099 4.19648 38.4595 4.665 38.6124 5.20889C38.7654 5.75277 38.6996 6.33208 38.4281 6.83141C36.2116 10.9067 34.103 14.6829 32.1023 18.1601C31.7897 18.7041 31.6318 19.2841 31.6287 19.9002C31.624 21.6268 32.0413 25.702 31.277 27.1221C30.5126 28.5421 28.0648 28.5151 27.3286 27.0409C26.6158 25.6164 27.0191 21.6673 27.0238 19.9678C27.0269 19.3277 26.8691 18.7296 26.5502 18.1736C24.39 14.3899 22.197 10.4814 19.9711 6.44823C19.7563 6.05921 19.7017 5.60684 19.8182 5.18147C19.9347 4.75611 20.2137 4.38906 20.5995 4.15364L21.1013 3.84709C22.4393 3.02963 23.4693 3.29861 24.1915 4.65403L29.2371 14.1344Z" fill="black"/>
<path id="Vector_4" d="M58.9615 3.67595C59.487 3.32637 59.9875 3.27364 60.4629 3.51774C61.7156 4.15962 62.0816 4.99589 62.0816 6.41075C62.0816 11.7026 62.0816 16.9929 62.0816 22.2817C62.0816 23.7824 62.5836 24.0491 63.5689 25.0391C65.5255 27.0054 62.593 28.8497 60.5567 27.9185C58.2624 26.8698 57.6384 24.2028 57.6337 21.9833C57.6274 16.7126 57.6259 11.4419 57.629 6.17118C57.629 4.85576 57.8964 4.38564 58.9615 3.67595Z" fill="black"/>
<path id="Vector_5" d="M122.452 5.47769C122.452 5.20232 122.507 4.92952 122.616 4.67488C122.725 4.42024 122.884 4.18874 123.086 3.9936C123.287 3.79846 123.526 3.6435 123.79 3.53757C124.053 3.43165 124.336 3.37682 124.622 3.37623L130.728 3.36721C133.767 3.36127 136.684 4.53385 138.837 6.62697C140.991 8.7201 142.204 11.5623 142.21 14.5284V16.1519C142.213 17.6206 141.92 19.0754 141.347 20.4335C140.774 21.7915 139.932 23.026 138.871 24.0667C137.809 25.1073 136.547 25.9335 135.158 26.4983C133.769 27.063 132.279 27.3552 130.774 27.3582L124.668 27.3672C124.383 27.3678 124.1 27.3141 123.836 27.2093C123.572 27.1045 123.332 26.9505 123.13 26.7562C122.927 26.5619 122.767 26.3311 122.657 26.0769C122.547 25.8227 122.49 25.5501 122.49 25.2747L122.452 5.47769ZM126.992 7.89934L127.048 22.8531C127.048 22.9093 127.071 22.9632 127.112 23.003C127.154 23.0427 127.209 23.065 127.268 23.065L130.919 23.0515C131.795 23.0487 132.661 22.8737 133.469 22.5365C134.277 22.1993 135.01 21.7065 135.627 21.0863C136.244 20.4662 136.732 19.7307 137.065 18.9219C137.397 18.1132 137.566 17.247 137.563 16.3728L137.554 14.3074C137.547 12.5423 136.839 10.8517 135.584 9.60773C134.329 8.36371 132.631 7.66808 130.863 7.67386L127.212 7.68739C127.183 7.68739 127.154 7.69287 127.128 7.70352C127.101 7.71417 127.077 7.72978 127.056 7.74946C127.036 7.76915 127.02 7.79251 127.009 7.81823C126.998 7.84394 126.992 7.8715 126.992 7.89934Z" fill="black"/>
<path id="Vector_6" d="M176.999 12.2881V12.9507C176.341 15.2153 174.012 14.6298 172.223 14.6888C172.05 14.6949 171.964 14.7811 171.967 14.9475C171.99 17.1894 172.001 19.4116 172.001 21.6141C171.996 25.7893 176.729 22.4946 176.909 25.8982C176.985 27.3595 175.877 28.0448 174.453 28.19C165.918 29.0659 167.471 20.2663 167.494 15.1744C167.494 14.8537 167.329 14.6979 166.997 14.707C165.142 14.7524 163.423 14.1579 163.911 12.0658C164.257 10.5908 165.842 10.5092 167.272 10.5001C167.452 10.4971 167.537 10.4093 167.527 10.2369C167.442 8.5305 167.144 6.44293 168.327 5.53075C169.695 4.47334 171.712 5.26299 171.967 6.92397C172.053 7.45343 172.04 8.5547 171.93 10.2278C171.927 10.26 171.931 10.2924 171.942 10.323C171.952 10.3537 171.969 10.3821 171.991 10.4066C172.013 10.431 172.04 10.4511 172.07 10.4656C172.1 10.4801 172.133 10.4887 172.166 10.491C174.079 10.6272 176.266 10.01 176.999 12.2881Z" fill="black"/>
<path id="Vector_7" d="M42.6343 17.805C43.0945 20.1759 44.6303 21.2437 47.2416 21.0084C48.4497 20.8984 49.5092 19.7207 50.6311 19.5603C53.244 19.1799 53.5844 22.3604 51.8249 23.5565C48.584 25.7562 43.9239 25.6967 40.9467 23.1578C36.0517 18.9874 37.0106 9.25349 43.7321 7.13164C45.4485 6.59086 47.1073 6.60767 48.7086 7.18205C52.2324 8.44691 54.0207 11.4532 54.3179 14.9179C54.5097 17.0993 53.0906 17.6355 51.053 17.6355C48.2979 17.6416 45.538 17.6446 42.7733 17.6446C42.7526 17.645 42.7323 17.6497 42.7136 17.6582C42.695 17.6668 42.6785 17.6792 42.6653 17.6944C42.6521 17.7096 42.6425 17.7274 42.6372 17.7465C42.6318 17.7656 42.6308 17.7855 42.6343 17.805ZM42.826 14.0334H49.4421C49.4574 14.0334 49.472 14.0276 49.4828 14.0173C49.4936 14.007 49.4997 13.993 49.4997 13.9784V13.9326C49.4997 13.0963 49.1451 12.2944 48.5139 11.7031C47.8827 11.1118 47.0267 10.7796 46.1341 10.7796C45.2415 10.7796 44.3854 11.1118 43.7543 11.7031C43.1231 12.2944 42.7685 13.0963 42.7685 13.9326V13.9784C42.7685 13.993 42.7746 14.007 42.7853 14.0173C42.7961 14.0276 42.8108 14.0334 42.826 14.0334Z" fill="black"/>
<path id="Vector_8" d="M84.3839 25.1383C82.0914 25.1383 79.8927 24.169 78.2716 22.4437C76.6505 20.7183 75.7397 18.3783 75.7397 15.9383C75.7397 13.4983 76.6505 11.1582 78.2716 9.4329C79.8927 7.70756 82.0914 6.73828 84.3839 6.73828C86.6765 6.73828 88.8752 7.70756 90.4963 9.4329C92.1174 11.1582 93.0281 13.4983 93.0281 15.9383C93.0281 18.3783 92.1174 20.7183 90.4963 22.4437C88.8752 24.169 86.6765 25.1383 84.3839 25.1383ZM84.3839 20.8967C85.4759 20.8967 86.5231 20.3738 87.2952 19.4431C88.0673 18.5123 88.5011 17.25 88.5011 15.9337C88.5011 14.6175 88.0673 13.3551 87.2952 12.4244C86.5231 11.4936 85.4759 10.9707 84.3839 10.9707C83.292 10.9707 82.2448 11.4936 81.4726 12.4244C80.7005 13.3551 80.2668 14.6175 80.2668 15.9337C80.2668 17.25 80.7005 18.5123 81.4726 19.4431C82.2448 20.3738 83.292 20.8967 84.3839 20.8967Z" fill="black"/>
<path id="Vector_9" d="M111.815 16.6026C111.988 17.2418 112.155 17.2403 112.315 16.598C113.044 13.6955 113.955 10.8547 115.048 8.0757C115.149 7.81841 115.302 7.5834 115.496 7.38417C115.69 7.18494 115.923 7.02544 116.18 6.91481C116.438 6.80419 116.715 6.74464 116.996 6.73959C117.278 6.73453 117.557 6.78407 117.819 6.88536L118.257 7.0521C118.678 7.21527 119.019 7.53136 119.209 7.9349C119.4 8.33843 119.425 8.79847 119.28 9.21973C116.82 16.3402 115.111 21.1417 114.153 23.6243C113.356 25.6808 110.67 25.5372 109.926 23.4714C108.87 20.5442 107.969 17.6973 107.221 14.9306C107.095 14.4613 106.968 14.4597 106.839 14.926C106.117 17.566 105.292 20.1999 104.365 22.8276C103.182 26.181 100.647 25.6808 99.5397 22.6377C98.0349 18.5094 96.4453 14.0429 94.7709 9.23826C94.6245 8.81932 94.6469 8.36118 94.8336 7.95801C95.0203 7.55484 95.357 7.23729 95.7746 7.07062L96.2034 6.89925C96.465 6.79487 96.7451 6.74252 97.0274 6.74525C97.3097 6.74797 97.5886 6.80571 97.8481 6.91513C98.1076 7.02454 98.3423 7.18346 98.5389 7.38267C98.7354 7.58189 98.8898 7.81744 98.9931 8.0757C100.102 10.8485 101.013 13.6909 101.726 16.6026C101.896 17.2974 102.072 17.2989 102.254 16.6073C102.967 13.8869 103.881 11.1017 104.997 8.2517C105.788 6.22302 108.333 6.24155 109.096 8.26097C110.19 11.1573 111.096 13.9379 111.815 16.6026Z" fill="black"/>
<path id="Vector_10" d="M153.194 25.1383C152.059 25.1383 150.935 24.9003 149.886 24.438C148.837 23.9756 147.884 23.298 147.082 22.4437C146.279 21.5894 145.642 20.5752 145.208 19.459C144.773 18.3428 144.55 17.1464 144.55 15.9383C144.55 14.7301 144.773 13.5338 145.208 12.4176C145.642 11.3014 146.279 10.2872 147.082 9.4329C147.884 8.5786 148.837 7.90093 149.886 7.43859C150.935 6.97625 152.059 6.73828 153.194 6.73828C155.487 6.73828 157.685 7.70756 159.306 9.4329C160.927 11.1582 161.838 13.4983 161.838 15.9383C161.838 18.3783 160.927 20.7183 159.306 22.4437C157.685 24.169 155.487 25.1383 153.194 25.1383ZM153.194 20.8967C154.287 20.8967 155.334 20.3738 156.107 19.4431C156.879 18.5123 157.313 17.25 157.313 15.9337C157.313 15.282 157.207 14.6366 157 14.0345C156.793 13.4323 156.489 12.8852 156.107 12.4244C155.724 11.9635 155.27 11.5979 154.77 11.3485C154.271 11.0991 153.735 10.9707 153.194 10.9707C152.653 10.9707 152.117 11.0991 151.618 11.3485C151.118 11.5979 150.664 11.9635 150.281 12.4244C149.899 12.8852 149.595 13.4323 149.388 14.0345C149.181 14.6366 149.075 15.282 149.075 15.9337C149.075 17.25 149.509 18.5123 150.281 19.4431C151.054 20.3738 152.101 20.8967 153.194 20.8967Z" fill="black"/>
</g>
</svg>
