<svg width="107" height="107" viewBox="0 0 107 107" fill="none" xmlns="http://www.w3.org/2000/svg">
<g id="dashicons:cloud-saved">
<path id="Vector" d="M79.1801 48.1504C79.7151 46.5454 80.2501 44.9404 80.2501 42.8004C80.2501 31.0304 70.6201 21.4004 58.8501 21.4004C50.8251 21.4004 43.3351 26.2154 40.1251 33.1704C38.5201 32.6354 36.3801 32.1004 34.7751 32.1004C27.2851 32.1004 21.4001 37.9854 21.4001 45.4754C21.4001 46.5454 21.4001 47.6154 21.9351 48.1504C12.3051 49.7554 5.3501 57.2454 5.3501 66.8754C5.3501 77.0404 13.9101 85.6004 24.0751 85.6004H77.5751C87.7401 85.6004 96.3001 77.0404 96.3001 66.8754C96.3001 57.2454 88.8101 49.2204 79.1801 48.1504ZM45.4751 79.7154L28.3551 62.5954L35.8451 55.1054L45.4751 64.7354L65.8051 44.4054L73.2951 51.8954L45.4751 79.7154Z" fill="#303064" fill-opacity="0.8"/>
</g>
</svg>
