<svg width="76" height="76" viewBox="0 0 76 76" fill="none" xmlns="http://www.w3.org/2000/svg">
<g id="Group">
<path id="Vector" d="M55.9998 3.00491C58.7168 3.52191 60.3302 4.09391 61.7198 5.80991C63.4688 7.95858 63.3772 10.2796 63.1902 14.9216C62.5302 31.6159 58.7902 52.6662 37.6702 52.6662C16.5502 52.6662 12.8065 31.6196 12.1392 14.9216C11.9558 10.2796 11.8642 7.95491 13.6058 5.80991C15.3512 3.66124 17.4375 3.30924 21.6138 2.60524C26.92 1.73559 32.2895 1.31 37.6665 1.33291C40.2992 1.33291 42.7485 1.42458 44.9998 1.58224" stroke="#581769" stroke-width="2" stroke-linecap="round"/>
<path id="Vector_2" d="M63.3333 12.332L66.813 13.4907C70.443 14.7007 72.258 15.3057 73.2957 16.7467C74.3333 18.1877 74.3333 20.1017 74.3333 23.926V24.1937C74.3333 27.347 74.3333 28.9274 73.5743 30.218C72.8153 31.5087 71.433 32.275 68.6757 33.8114L57.8333 39.832M12 12.332L8.52033 13.4907C4.89033 14.7007 3.07533 15.3057 2.03767 16.7467C1 18.1877 1 20.1054 1 23.926V24.1937C1 27.347 1 28.9274 1.759 30.218C2.518 31.5087 3.90033 32.275 6.65767 33.8114L17.5 39.832" stroke="#581769" stroke-width="2"/>
<path id="Vector_3" d="M37.6665 56.332V63.6654" stroke="#581769" stroke-width="2" stroke-linecap="round"/>
<path id="Vector_4" d="M50.5002 74.6667H24.8335L26.0802 68.448C26.2462 67.6171 26.695 66.8694 27.3501 66.3319C28.0051 65.7945 28.8262 65.5005 29.6735 65.5H45.6602C46.5075 65.5005 47.3285 65.7945 47.9836 66.3319C48.6387 66.8694 49.0874 67.6171 49.2535 68.448L50.5002 74.6667Z" stroke="#581769" stroke-width="2" stroke-linecap="round" stroke-linejoin="round"/>
<path id="Vector_5" d="M59.6665 74.668H15.6665" stroke="#581769" stroke-width="2" stroke-linecap="round"/>
</g>
</svg>
