<svg width="24" height="24" viewBox="0 0 24 24" fill="none" xmlns="http://www.w3.org/2000/svg">
<g id="fluent-mdl2:bulk-upload">
<g id="Vector">
<path d="M6 22.5H18V24H4.5V21H1.5V0H11.5664L16.2773 4.71094L21 9.43359V10.5H13.5V4.5H6V22.5ZM15 9H18.4336L15 5.56641V9ZM4.5 19.5V11.25V3H12.4336L10.9336 1.5H3V19.5H4.5ZM20.25 14.6953L23.9648 18.4102L22.9102 19.4648L21 17.5664V24H19.5V17.5664L17.5898 19.4648L16.5352 18.4102L20.25 14.6953ZM24 12V13.5H16.5V12H24Z" fill="#6A6A76"/>
<path d="M15 9H18.4336L15 5.56641V9Z" fill="#6A6A76"/>
<path d="M4.5 3H12.4336L10.9336 1.5H3V19.5H4.5V11.25V3Z" fill="#6A6A76"/>
</g>
</g>
</svg>
