<svg width="14" height="14" viewBox="0 0 14 14" fill="none" xmlns="http://www.w3.org/2000/svg">
<g id="mdi:filter">
<path id="Vector" d="M8.16601 7V11.5967C8.18934 11.7717 8.13101 11.9583 7.99684 12.0808C7.94288 12.1349 7.87878 12.1778 7.80821 12.2071C7.73764 12.2364 7.66199 12.2514 7.58559 12.2514C7.5092 12.2514 7.43355 12.2364 7.36298 12.2071C7.29241 12.1778 7.22831 12.1349 7.17434 12.0808L6.00184 10.9083C5.93822 10.8461 5.88985 10.7701 5.8605 10.6861C5.83115 10.6021 5.82163 10.5124 5.83268 10.4242V7H5.81518L2.45518 2.695C2.36045 2.57339 2.31771 2.41923 2.33629 2.26621C2.35487 2.11318 2.43326 1.97374 2.55434 1.87833C2.66518 1.79667 2.78768 1.75 2.91601 1.75H11.0827C11.211 1.75 11.3335 1.79667 11.4443 1.87833C11.5654 1.97374 11.6438 2.11318 11.6624 2.26621C11.681 2.41923 11.6382 2.57339 11.5435 2.695L8.18351 7H8.16601Z" fill="white"/>
</g>
</svg>
