<svg width="18" height="18" viewBox="0 0 18 18" fill="none" xmlns="http://www.w3.org/2000/svg">
<g id="fluent-mdl2:survey-questions" clip-path="url(#clip0_58_1836)">
<g id="Vector">
<path d="M8.75 14.6162H9.875V15.7412H8.75V14.6162ZM9.3125 6.17871C9.69922 6.17871 10.0625 6.25195 10.4023 6.39844C10.7422 6.54492 11.0381 6.74707 11.29 7.00488C11.542 7.2627 11.7441 7.56152 11.8965 7.90137C12.0488 8.24121 12.125 8.60449 12.125 8.99121C12.125 9.34277 12.0693 9.65039 11.958 9.91406C11.8467 10.1777 11.709 10.4121 11.5449 10.6172C11.3809 10.8223 11.1992 11.0127 11 11.1885C10.8008 11.3643 10.6221 11.54 10.4639 11.7158C10.3057 11.8916 10.165 12.0762 10.042 12.2695C9.91895 12.4629 9.86328 12.6826 9.875 12.9287V13.4912H8.75V12.9287C8.75 12.5771 8.80566 12.2725 8.91699 12.0146C9.02832 11.7568 9.16602 11.5225 9.33008 11.3115C9.49414 11.1006 9.67578 10.9072 9.875 10.7314C10.0742 10.5557 10.2529 10.3828 10.4111 10.2129C10.5693 10.043 10.71 9.8584 10.833 9.65918C10.9561 9.45996 11.0117 9.2373 11 8.99121C11 8.7627 10.9561 8.5459 10.8682 8.34082C10.7803 8.13574 10.6602 7.95703 10.5078 7.80469C10.3555 7.65234 10.1738 7.5293 9.96289 7.43555C9.75195 7.3418 9.53516 7.29785 9.3125 7.30371C9.08398 7.30371 8.86719 7.34766 8.66211 7.43555C8.45703 7.52344 8.27832 7.64355 8.12598 7.7959C7.97363 7.94824 7.85059 8.12988 7.75684 8.34082C7.66309 8.55176 7.61914 8.76855 7.625 8.99121H6.5C6.5 8.60449 6.57324 8.24121 6.71973 7.90137C6.86621 7.56152 7.06543 7.26562 7.31738 7.01367C7.56934 6.76172 7.86816 6.55957 8.21387 6.40723C8.55957 6.25488 8.92578 6.17871 9.3125 6.17871ZM16.625 4.8252V18H2V0H11.8438L16.625 4.8252ZM12.1689 4.5H14.7178L12.1689 1.93359V4.5ZM15.5 16.875V5.625H11.0439V1.125H3.125V16.875H15.5Z" fill="#9B209D" fill-opacity="0.6"/>
<path d="M8.75 14.4662H8.6V14.6162V15.7412V15.8912H8.75H9.875H10.025V15.7412V14.6162V14.4662H9.875H8.75ZM10.025 12.9287H10.0252L10.0248 12.9216C10.0145 12.704 10.0634 12.5153 10.1685 12.3501C10.287 12.1639 10.4225 11.986 10.5754 11.8162C10.7293 11.6451 10.9038 11.4734 11.0992 11.301C11.3049 11.1195 11.4925 10.9228 11.6621 10.7109C11.8355 10.4941 11.98 10.2476 12.0962 9.97241C12.2169 9.68657 12.275 9.35837 12.275 8.99121C12.275 8.58417 12.1947 8.1999 12.0334 7.84001C11.874 7.48458 11.662 7.17091 11.3973 6.90004C11.1313 6.62787 10.819 6.4147 10.4617 6.26069C10.1023 6.10576 9.7187 6.02871 9.3125 6.02871C8.90546 6.02871 8.5186 6.10902 8.15338 6.26996C7.79172 6.42934 7.47718 6.64175 7.21132 6.90761C6.94543 7.1735 6.73568 7.48541 6.58198 7.84199C6.42705 8.20143 6.35 8.58501 6.35 8.99121V9.14121H6.5H7.625H7.779L7.77495 8.98726C7.7697 8.78774 7.80888 8.59305 7.89391 8.40174C7.98072 8.20642 8.09362 8.04039 8.23204 7.90196C8.37041 7.7636 8.53302 7.65406 8.7212 7.57342C8.90715 7.49373 9.10379 7.45371 9.3125 7.45371V7.45376L9.31645 7.45366C9.51597 7.44841 9.71066 7.48759 9.90197 7.57262C10.0973 7.65943 10.2633 7.77233 10.4017 7.91075C10.5401 8.04912 10.6496 8.21173 10.7303 8.39991C10.81 8.58586 10.85 8.78251 10.85 8.99121H10.8498L10.8502 8.99835C10.8605 9.21587 10.8117 9.40828 10.7054 9.58036C10.5875 9.77129 10.4528 9.94801 10.3013 10.1107C10.1469 10.2765 9.97181 10.446 9.77576 10.619C9.56949 10.801 9.38144 11.0012 9.21168 11.2194C9.03944 11.4409 8.89539 11.6863 8.77928 11.9552C8.65808 12.2359 8.6 12.5617 8.6 12.9287V13.4912V13.6412H8.75H9.875H10.025V13.4912V12.9287ZM16.775 4.8252V4.76346L16.7316 4.71962L11.9503 -0.10558L11.9063 -0.15H11.8438H2H1.85V0V18V18.15H2H16.625H16.775V18V4.8252ZM10.8939 5.625V5.775H11.0439H15.35V16.725H3.275V1.275H10.8939V5.625ZM12.3189 2.29749L14.3574 4.35H12.3189V2.29749Z" stroke="#9B209D" stroke-opacity="0.6" stroke-width="0.3"/>
</g>
</g>
<defs>
<clipPath id="clip0_58_1836">
<rect width="18" height="18" fill="white"/>
</clipPath>
</defs>
</svg>
