<svg width="16" height="16" viewBox="0 0 16 16" fill="none" xmlns="http://www.w3.org/2000/svg">
<path id="Vector" d="M13.4861 0L16 5H13.1917L11.2694 0H13.4861ZM9.93056 0L11.8528 5H4.14722L6.06944 0H9.93056ZM2.51389 0H4.73056L2.80833 5H0L2.51389 0ZM0 6H2.79722L6.21389 13.8656C6.25556 13.9625 6.13889 14.05 6.075 13.9688L0 6ZM4.11667 6H11.8833L8.07778 15.9438C8.05 16.0188 7.95278 16.0188 7.925 15.9438L4.11667 6ZM9.78611 13.8656L13.2028 6H16L9.925 13.9656C9.86111 14.05 9.74444 13.9625 9.78611 13.8656Z" fill="white"/>
</svg>
