<svg width="23" height="26" viewBox="0 0 23 26" fill="none" xmlns="http://www.w3.org/2000/svg">
<g id="Group">
<path id="Vector" fill-rule="evenodd" clip-rule="evenodd" d="M6.62622 3.0874C6.62622 2.44094 6.88303 1.82095 7.34015 1.36383C7.79727 0.90671 8.41726 0.649902 9.06372 0.649902C9.71019 0.649902 10.3302 0.90671 10.7873 1.36383C11.2444 1.82095 11.5012 2.44094 11.5012 3.0874V8.4499C11.5012 8.62229 11.4327 8.78762 11.3108 8.90952C11.1889 9.03142 11.0236 9.0999 10.8512 9.0999C10.6788 9.0999 10.5135 9.03142 10.3916 8.90952C10.2697 8.78762 10.2012 8.62229 10.2012 8.4499V3.0874C10.2012 2.78572 10.0814 2.49639 9.86805 2.28307C9.65473 2.06975 9.3654 1.9499 9.06372 1.9499C8.76204 1.9499 8.47271 2.06975 8.25939 2.28307C8.04606 2.49639 7.92622 2.78572 7.92622 3.0874V15.5999C7.92622 15.7723 7.85774 15.9376 7.73584 16.0595C7.61394 16.1814 7.44861 16.2499 7.27622 16.2499C7.10383 16.2499 6.9385 16.1814 6.8166 16.0595C6.6947 15.9376 6.62622 15.7723 6.62622 15.5999V3.0874Z" fill="#303064"/>
<path id="Vector_2" fill-rule="evenodd" clip-rule="evenodd" d="M3.92348 12.6867C3.74645 12.4823 3.49781 12.3536 3.22873 12.3269C2.95965 12.3003 2.6906 12.3778 2.47693 12.5435C2.26326 12.7092 2.12123 12.9505 2.08005 13.2178C2.03888 13.485 2.1017 13.7579 2.25558 13.9802L5.85918 19.1282C5.95796 19.2696 5.99654 19.4444 5.96643 19.6142C5.93633 19.784 5.84 19.9349 5.69863 20.0337C5.55727 20.1324 5.38246 20.171 5.21266 20.1409C5.04285 20.1108 4.89196 20.0145 4.79318 19.8731L1.19088 14.7251C0.850431 14.2293 0.71237 13.6222 0.804969 13.028C0.897568 12.4337 1.21382 11.8974 1.68898 11.5287C2.16413 11.1601 2.76224 10.987 3.36085 11.0449C3.95945 11.1029 4.51326 11.3874 4.90889 11.8404L7.76888 15.1762C7.82555 15.2408 7.86883 15.3161 7.89623 15.3975C7.92362 15.479 7.93459 15.5651 7.92849 15.6508C7.92239 15.7366 7.89935 15.8202 7.8607 15.897C7.82204 15.9738 7.76855 16.0421 7.70331 16.0981C7.63806 16.154 7.56237 16.1965 7.48061 16.223C7.39884 16.2495 7.31263 16.2596 7.22697 16.2525C7.1413 16.2455 7.05788 16.2216 6.98154 16.1821C6.90519 16.1426 6.83743 16.0883 6.78218 16.0225L3.92348 12.6867ZM10.196 8.9375C10.196 8.29103 10.4528 7.67105 10.9099 7.21393C11.367 6.75681 11.987 6.5 12.6335 6.5C13.28 6.5 13.8999 6.75681 14.3571 7.21393C14.8142 7.67105 15.071 8.29103 15.071 8.9375V11.83C15.071 12.0024 15.0025 12.1677 14.8806 12.2896C14.7587 12.4115 14.5934 12.48 14.421 12.48C14.2486 12.48 14.0833 12.4115 13.9614 12.2896C13.8395 12.1677 13.771 12.0024 13.771 11.83V8.9375C13.771 8.63582 13.6511 8.34649 13.4378 8.13317C13.2245 7.91984 12.9352 7.8 12.6335 7.8C12.3318 7.8 12.0425 7.91984 11.8292 8.13317C11.6158 8.34649 11.496 8.63582 11.496 8.9375V12.35C11.496 12.5224 11.4275 12.6877 11.3056 12.8096C11.1837 12.9315 11.0184 13 10.846 13C10.6736 13 10.5083 12.9315 10.3864 12.8096C10.2645 12.6877 10.196 12.5224 10.196 12.35V8.9375Z" fill="#303064"/>
<path id="Vector_3" fill-rule="evenodd" clip-rule="evenodd" d="M18.646 10.2359C18.6531 9.91133 18.5953 9.5886 18.476 9.28667C18.3566 8.98475 18.1781 8.70973 17.951 8.47777C17.7238 8.24581 17.4526 8.0616 17.1532 7.93595C16.8539 7.8103 16.5324 7.74575 16.2078 7.7461C15.8831 7.74644 15.5618 7.81168 15.2627 7.93796C14.9636 8.06425 14.6928 8.24905 14.4661 8.48149C14.2395 8.71393 14.0616 8.98934 13.9429 9.29151C13.8242 9.59369 13.767 9.91654 13.7749 10.2411L13.7762 11.051C13.7764 11.1364 13.7933 11.2209 13.8262 11.2997C13.859 11.3784 13.907 11.45 13.9675 11.5102C14.028 11.5705 14.0997 11.6182 14.1786 11.6507C14.2576 11.6832 14.3421 11.6999 14.4275 11.6997C14.5128 11.6995 14.5973 11.6826 14.6761 11.6497C14.7549 11.6169 14.8265 11.5689 14.8867 11.5084C14.947 11.4479 14.9947 11.3762 15.0272 11.2973C15.0597 11.2183 15.0764 11.1338 15.0762 11.0484L15.0749 10.2372C15.0696 10.0849 15.0951 9.93301 15.1498 9.7907C15.2044 9.6484 15.2872 9.51855 15.3931 9.40889C15.499 9.29923 15.6258 9.212 15.7661 9.15239C15.9065 9.09279 16.0573 9.06202 16.2098 9.06194C16.3622 9.06185 16.5131 9.09244 16.6535 9.15188C16.7938 9.21133 16.9208 9.29841 17.0268 9.40795C17.1329 9.51749 17.2158 9.64725 17.2706 9.78949C17.3254 9.93173 17.351 10.0835 17.346 10.2359V12.9997C17.346 13.1721 17.4145 13.3374 17.5364 13.4593C17.6583 13.5812 17.8236 13.6497 17.996 13.6497C18.1684 13.6497 18.3337 13.5812 18.4556 13.4593C18.5775 13.3374 18.646 13.1721 18.646 12.9997V10.2359Z" fill="#303064"/>
<path id="Vector_4" fill-rule="evenodd" clip-rule="evenodd" d="M22.2209 12.8374C22.2209 11.4906 21.1289 10.3999 19.7834 10.3999H19.2959C18.7788 10.3999 18.2828 10.6053 17.9171 10.971C17.5514 11.3367 17.3459 11.8327 17.3459 12.3499H18.6459C18.6459 12.1775 18.7144 12.0122 18.8363 11.8903C18.9582 11.7684 19.1236 11.6999 19.2959 11.6999H19.7834C20.4113 11.6999 20.9209 12.2095 20.9209 12.8374V17.5499C20.9209 17.7223 20.9894 17.8876 21.1113 18.0095C21.2332 18.1314 21.3986 18.1999 21.5709 18.1999C21.7433 18.1999 21.9087 18.1314 22.0306 18.0095C22.1525 17.8876 22.2209 17.7223 22.2209 17.5499V12.8374Z" fill="#303064"/>
<path id="Vector_5" fill-rule="evenodd" clip-rule="evenodd" d="M21.5761 16.8999C21.7485 16.8999 21.9139 16.9684 22.0358 17.0903C22.1577 17.2122 22.2261 17.3775 22.2261 17.5499C22.2261 20.3319 21.1731 22.317 19.5377 23.5884C17.9283 24.8403 15.8223 25.3499 13.7761 25.3499C11.7104 25.3499 9.96064 24.8312 8.46694 23.864C6.97974 22.902 5.77854 21.5175 4.76844 19.834C4.72457 19.7608 4.69555 19.6796 4.68304 19.5951C4.67053 19.5107 4.67478 19.4246 4.69554 19.3418C4.71631 19.259 4.75318 19.1811 4.80405 19.1125C4.85492 19.0439 4.9188 18.9861 4.99204 18.9422C5.06528 18.8983 5.14644 18.8693 5.2309 18.8568C5.31535 18.8443 5.40144 18.8485 5.48425 18.8693C5.56706 18.8901 5.64497 18.9269 5.71354 18.9778C5.7821 19.0287 5.83997 19.0926 5.88384 19.1658C6.82374 20.7323 7.89884 21.9478 9.17284 22.7733C10.4416 23.5936 11.9418 24.0499 13.7761 24.0499C15.6299 24.0499 17.4239 23.5845 18.7395 22.5614C20.0304 21.5578 20.9261 19.9679 20.9261 17.5499C20.9261 17.3775 20.9946 17.2122 21.1165 17.0903C21.2384 16.9684 21.4038 16.8999 21.5761 16.8999Z" fill="#303064"/>
</g>
</svg>
