<svg width="26" height="26" viewBox="0 0 26 26" fill="none" xmlns="http://www.w3.org/2000/svg">
<g id="pepicons-pencil:hand-point-open" clip-path="url(#clip0_30_300)">
<g id="Group">
<path id="Vector" fill-rule="evenodd" clip-rule="evenodd" d="M19.3738 22.9126C19.3738 23.5591 19.117 24.1791 18.6599 24.6362C18.2027 25.0933 17.5827 25.3501 16.9363 25.3501C16.2898 25.3501 15.6698 25.0933 15.2127 24.6362C14.7556 24.1791 14.4988 23.5591 14.4988 22.9126L14.4988 17.5501C14.4988 17.3777 14.5673 17.2124 14.6892 17.0905C14.8111 16.9686 14.9764 16.9001 15.1488 16.9001C15.3212 16.9001 15.4865 16.9686 15.6084 17.0905C15.7303 17.2124 15.7988 17.3777 15.7988 17.5501L15.7988 22.9126C15.7988 23.2143 15.9186 23.5036 16.1319 23.7169C16.3453 23.9303 16.6346 24.0501 16.9363 24.0501C17.238 24.0501 17.5273 23.9303 17.7406 23.7169C17.9539 23.5036 18.0738 23.2143 18.0738 22.9126L18.0738 10.4001C18.0738 10.2277 18.1423 10.0624 18.2642 9.94048C18.3861 9.81858 18.5514 9.7501 18.7238 9.7501C18.8962 9.7501 19.0615 9.81858 19.1834 9.94048C19.3053 10.0624 19.3738 10.2277 19.3738 10.4001L19.3738 22.9126Z" fill="#303064"/>
<path id="Vector_2" fill-rule="evenodd" clip-rule="evenodd" d="M22.0765 13.3133C22.2536 13.5177 22.5022 13.6464 22.7713 13.6731C23.0404 13.6997 23.3094 13.6222 23.5231 13.4565C23.7367 13.2908 23.8788 13.0495 23.9199 12.7822C23.9611 12.515 23.8983 12.2421 23.7444 12.0198L20.1408 6.8718C20.042 6.73044 20.0035 6.55563 20.0336 6.38582C20.0637 6.21602 20.16 6.06513 20.3014 5.96635C20.4427 5.86757 20.6175 5.82899 20.7873 5.8591C20.9571 5.88921 21.108 5.98554 21.2068 6.1269L24.8091 11.2749C25.1496 11.7707 25.2876 12.3778 25.195 12.972C25.1024 13.5663 24.7862 14.1026 24.311 14.4713C23.8359 14.8399 23.2378 15.013 22.6392 14.9551C22.0406 14.8971 21.4867 14.6126 21.0911 14.1596L18.2311 10.8238C18.1745 10.7592 18.1312 10.6839 18.1038 10.6025C18.0764 10.521 18.0654 10.4349 18.0715 10.3492C18.0776 10.2634 18.1006 10.1798 18.1393 10.103C18.178 10.0262 18.2315 9.95787 18.2967 9.90191C18.3619 9.84595 18.4376 9.80349 18.5194 9.77698C18.6012 9.75047 18.6874 9.74044 18.773 9.74747C18.8587 9.7545 18.9421 9.77845 19.0185 9.81793C19.0948 9.85742 19.1626 9.91165 19.2178 9.9775L22.0765 13.3133ZM15.804 17.0625C15.804 17.709 15.5472 18.329 15.0901 18.7861C14.633 19.2432 14.013 19.5 13.3665 19.5C12.72 19.5 12.1001 19.2432 11.6429 18.7861C11.1858 18.329 10.929 17.709 10.929 17.0625L10.929 14.17C10.929 13.9976 10.9975 13.8323 11.1194 13.7104C11.2413 13.5885 11.4066 13.52 11.579 13.52C11.7514 13.52 11.9167 13.5885 12.0386 13.7104C12.1605 13.8323 12.229 13.9976 12.229 14.17L12.229 17.0625C12.229 17.3642 12.3489 17.6535 12.5622 17.8668C12.7755 18.0802 13.0648 18.2 13.3665 18.2C13.6682 18.2 13.9575 18.0802 14.1708 17.8668C14.3842 17.6535 14.504 17.3642 14.504 17.0625L14.504 13.65C14.504 13.4776 14.5725 13.3123 14.6944 13.1904C14.8163 13.0685 14.9816 13 15.154 13C15.3264 13 15.4917 13.0685 15.6136 13.1904C15.7355 13.3123 15.804 13.4776 15.804 13.65L15.804 17.0625Z" fill="#303064"/>
<path id="Vector_3" fill-rule="evenodd" clip-rule="evenodd" d="M7.35402 15.7641C7.34687 16.0887 7.40468 16.4114 7.52403 16.7133C7.64339 17.0152 7.82188 17.2903 8.04903 17.5222C8.27619 17.7542 8.54741 17.9384 8.84676 18.0641C9.14612 18.1897 9.46757 18.2543 9.79223 18.2539C10.1169 18.2536 10.4382 18.1883 10.7373 18.062C11.0364 17.9357 11.3072 17.751 11.5339 17.5185C11.7605 17.2861 11.9384 17.0107 12.0571 16.7085C12.1758 16.4063 12.233 16.0835 12.2251 15.7589L12.2238 14.949C12.2236 14.8636 12.2067 14.7791 12.1738 14.7003C12.141 14.6216 12.093 14.55 12.0325 14.4898C11.972 14.4295 11.9003 14.3818 11.8214 14.3493C11.7424 14.3168 11.6579 14.3001 11.5725 14.3003C11.4872 14.3005 11.4027 14.3174 11.3239 14.3503C11.2451 14.3831 11.1735 14.4311 11.1133 14.4916C11.053 14.5521 11.0053 14.6238 10.9728 14.7027C10.9403 14.7817 10.9236 14.8662 10.9238 14.9516L10.9251 15.7628C10.9304 15.9151 10.9049 16.067 10.8502 16.2093C10.7956 16.3516 10.7128 16.4814 10.6069 16.5911C10.501 16.7008 10.3742 16.788 10.2339 16.8476C10.0935 16.9072 9.94268 16.938 9.79024 16.9381C9.6378 16.9382 9.4869 16.9076 9.34652 16.8481C9.20615 16.7887 9.07917 16.7016 8.97316 16.592C8.86714 16.4825 8.78425 16.3528 8.72942 16.2105C8.67459 16.0683 8.64895 15.9165 8.65402 15.7641L8.65402 13.0003C8.65402 12.8279 8.58554 12.6626 8.46364 12.5407C8.34174 12.4188 8.17641 12.3503 8.00402 12.3503C7.83163 12.3503 7.6663 12.4188 7.5444 12.5407C7.4225 12.6626 7.35402 12.8279 7.35402 13.0003L7.35402 15.7641Z" fill="#303064"/>
<path id="Vector_4" fill-rule="evenodd" clip-rule="evenodd" d="M3.77905 13.1626C3.77905 14.5094 4.87105 15.6001 6.21655 15.6001L6.70405 15.6001C7.22122 15.6001 7.71722 15.3947 8.08291 15.029C8.44861 14.6633 8.65405 14.1673 8.65405 13.6501L7.35405 13.6501C7.35405 13.8225 7.28557 13.9878 7.16367 14.1097C7.04177 14.2316 6.87644 14.3001 6.70405 14.3001L6.21655 14.3001C5.58865 14.3001 5.07905 13.7905 5.07905 13.1626L5.07905 8.4501C5.07905 8.27771 5.01057 8.11238 4.88867 7.99048C4.76677 7.86858 4.60144 7.8001 4.42905 7.8001C4.25666 7.8001 4.09133 7.86858 3.96943 7.99048C3.84753 8.11238 3.77905 8.27771 3.77905 8.4501L3.77905 13.1626Z" fill="#303064"/>
<path id="Vector_5" fill-rule="evenodd" clip-rule="evenodd" d="M4.42386 9.1001C4.25147 9.1001 4.08614 9.03161 3.96424 8.90972C3.84234 8.78782 3.77386 8.62249 3.77386 8.4501C3.77386 5.6681 4.82686 3.683 6.46226 2.4116C8.07166 1.1597 10.1777 0.650097 12.2239 0.650097C14.2896 0.650097 16.0394 1.1688 17.5331 2.136C19.0203 3.098 20.2215 4.4825 21.2316 6.166C21.2754 6.23924 21.3045 6.3204 21.317 6.40485C21.3295 6.48931 21.3252 6.5754 21.3045 6.65821C21.2837 6.74102 21.2468 6.81893 21.1959 6.88749C21.1451 6.95605 21.0812 7.01392 21.008 7.0578C20.9347 7.10167 20.8536 7.13069 20.7691 7.1432C20.6847 7.15571 20.5986 7.15146 20.5157 7.1307C20.4329 7.10993 20.355 7.07306 20.2865 7.02219C20.2179 6.97132 20.16 6.90744 20.1162 6.8342C19.1763 5.2677 18.1012 4.0522 16.8272 3.2267C15.5584 2.4064 14.0582 1.9501 12.2239 1.9501C10.3701 1.9501 8.57606 2.4155 7.26046 3.4386C5.96956 4.4422 5.07386 6.0321 5.07386 8.4501C5.07386 8.62249 5.00537 8.78782 4.88348 8.90972C4.76158 9.03161 4.59625 9.1001 4.42386 9.1001Z" fill="#303064"/>
</g>
</g>
<defs>
<clipPath id="clip0_30_300">
<rect width="26" height="26" fill="white" transform="translate(26 26) rotate(-180)"/>
</clipPath>
</defs>
</svg>
