<svg width="18" height="18" viewBox="0 0 18 18" fill="none" xmlns="http://www.w3.org/2000/svg">
<g id="ic:outline-cancel">
<path id="Vector" d="M8.5 0C3.7995 0 0 3.7995 0 8.5C0 13.2005 3.7995 17 8.5 17C13.2005 17 17 13.2005 17 8.5C17 3.7995 13.2005 0 8.5 0ZM8.5 15.3C4.7515 15.3 1.7 12.2485 1.7 8.5C1.7 4.7515 4.7515 1.7 8.5 1.7C12.2485 1.7 15.3 4.7515 15.3 8.5C15.3 12.2485 12.2485 15.3 8.5 15.3Z" fill="#D60E0E" fill-opacity="0.6"/>
<path id="Vector_2" d="M8.5 7.513L11.013 5L12 5.987L9.487 8.5L12 11.013L11.013 12L8.5 9.487L5.987 12L5 11.013L7.513 8.5L5 5.987L5.987 5L8.5 7.513Z" fill="#D60E0E" fill-opacity="0.6"/>
</g>
</svg>
