<svg width="22" height="23" viewBox="0 0 22 23" fill="none" xmlns="http://www.w3.org/2000/svg">
<path id="Vector" d="M11 0.953125C8.82441 0.953125 6.69767 1.59826 4.88873 2.80696C3.07979 4.01565 1.66989 5.73362 0.83733 7.74361C0.00476615 9.75359 -0.213071 11.9653 0.211367 14.0991C0.635804 16.2329 1.68345 18.1929 3.22183 19.7313C4.76021 21.2697 6.72022 22.3173 8.85401 22.7418C10.9878 23.1662 13.1995 22.9484 15.2095 22.1158C17.2195 21.2832 18.9375 19.8733 20.1462 18.0644C21.3549 16.2555 22 14.1287 22 11.9531C21.9968 9.03673 20.8368 6.24072 18.7746 4.17852C16.7124 2.11632 13.9164 0.95636 11 0.953125ZM8.86824 16.4346H13.1318C12.6697 17.8422 11.9465 19.15 11 20.2897C10.0535 19.15 9.3303 17.8422 8.86824 16.4346ZM8.29176 13.9902C8.10028 12.6389 8.10028 11.2674 8.29176 9.91609H13.7082C13.8997 11.2674 13.8997 12.6389 13.7082 13.9902H8.29176ZM2.44445 11.9531C2.44442 11.2666 2.52752 10.5826 2.69195 9.91609H5.82797C5.66228 11.2691 5.66228 12.6372 5.82797 13.9902H2.69195C2.52752 13.3236 2.44442 12.6396 2.44445 11.9531ZM13.1318 7.47164H8.86824C9.3303 6.06409 10.0535 4.75623 11 3.61655C11.9465 4.75623 12.6697 6.06409 13.1318 7.47164ZM16.172 9.91609H19.3081C19.6381 11.2541 19.6381 12.6522 19.3081 13.9902H16.172C16.3377 12.6372 16.3377 11.2691 16.172 9.91609ZM18.2844 7.47164H15.6852C15.3538 6.27596 14.8766 5.12556 14.2644 4.04637C15.9303 4.73858 17.3365 5.93678 18.2844 7.47164ZM7.74074 4.04637C7.12675 5.12532 6.64784 6.27572 6.31482 7.47164H3.71556C4.66482 5.93596 6.07297 4.73768 7.74074 4.04637ZM3.71556 16.4346H6.31482C6.64784 17.6305 7.12675 18.7809 7.74074 19.8599C6.07297 19.1686 4.66482 17.9703 3.71556 16.4346ZM14.2644 19.8599C14.8766 18.7807 15.3538 17.6303 15.6852 16.4346H18.2844C17.3365 17.9695 15.9303 19.1677 14.2644 19.8599Z" fill="white"/>
</svg>
