<svg width="26" height="27" viewBox="0 0 26 27" fill="none" xmlns="http://www.w3.org/2000/svg">
<g id="Group 211">
<path id="Star 7" d="M14.1795 2.35408C13.7911 1.2332 12.2059 1.2332 11.8174 2.35408L11.0294 4.62765L8.48365 4.62765C7.25332 4.62765 6.76309 6.21814 7.77997 6.91076L9.76866 8.26531L9.00936 10.4561C8.61509 11.5937 9.89905 12.5763 10.8941 11.8986L12.9985 10.4652L15.1028 11.8986C16.0979 12.5763 17.3819 11.5937 16.9876 10.4561L16.2283 8.26531L18.217 6.91076C19.2339 6.21814 18.7436 4.62765 17.5133 4.62765L14.9675 4.62765L14.1795 2.35408Z" stroke="white" stroke-opacity="0.6" stroke-width="2"/>
<g id="Group 210">
<path id="Rectangle 145" d="M1 22.499C1 21.9467 1.44772 21.499 2 21.499H6.40004C6.95233 21.499 7.40004 21.9467 7.40004 22.499V25.999H1V22.499Z" stroke="white" stroke-opacity="0.6" stroke-width="2"/>
<path id="Rectangle 147" d="M18.6016 19.499C18.6016 18.9467 19.0493 18.499 19.6016 18.499H24.0016C24.5539 18.499 25.0016 18.9467 25.0016 19.499V25.999H18.6016V19.499Z" stroke="white" stroke-opacity="0.6" stroke-width="2"/>
<path id="Rectangle 146" d="M8 17C8 15.8954 8.89543 15 10 15H16.0001C17.1046 15 18.0001 15.8954 18.0001 17V25.9998H8V17Z" stroke="white" stroke-opacity="0.6" stroke-width="2"/>
</g>
</g>
</svg>
