<svg width="24" height="24" viewBox="0 0 24 24" fill="none" xmlns="http://www.w3.org/2000/svg">
<g id="solar:cup-broken">
<g id="Group">
<path id="Vector" d="M17.0004 2.45624C17.7414 2.59724 18.1814 2.75324 18.5604 3.22124C19.0374 3.80724 19.0124 4.44024 18.9614 5.70624C18.7814 10.2592 17.7614 16.0002 12.0014 16.0002C6.2414 16.0002 5.2204 10.2602 5.0384 5.70624C4.9884 4.44024 4.9634 3.80624 5.4384 3.22124C5.9144 2.63524 6.4834 2.53924 7.6224 2.34724C9.06954 2.11006 10.534 1.99399 12.0004 2.00024C12.7184 2.00024 13.3864 2.02524 14.0004 2.06824" stroke="#54349F" stroke-width="1.5" stroke-linecap="round"/>
<path id="Vector_2" d="M19 5L19.949 5.316C20.939 5.646 21.434 5.811 21.717 6.204C22 6.597 22 7.119 22 8.162V8.235C22 9.095 22 9.526 21.793 9.878C21.586 10.23 21.209 10.439 20.457 10.858L17.5 12.5M5 5L4.051 5.316C3.061 5.646 2.566 5.811 2.283 6.204C2 6.597 2 7.12 2 8.162V8.235C2 9.095 2 9.526 2.207 9.878C2.414 10.23 2.791 10.439 3.543 10.858L6.5 12.5" stroke="#54349F" stroke-width="1.5"/>
<path id="Vector_3" d="M12 17V19" stroke="#54349F" stroke-width="1.5" stroke-linecap="round"/>
<path id="Vector_4" d="M15.5 22H8.5L8.84 20.304C8.88529 20.0774 9.00768 19.8735 9.18634 19.7269C9.365 19.5803 9.58891 19.5001 9.82 19.5H14.18C14.4111 19.5001 14.635 19.5803 14.8137 19.7269C14.9923 19.8735 15.1147 20.0774 15.16 20.304L15.5 22Z" stroke="#54349F" stroke-width="1.5" stroke-linecap="round" stroke-linejoin="round"/>
<path id="Vector_5" d="M18 22H6" stroke="#54349F" stroke-width="1.5" stroke-linecap="round"/>
</g>
</g>
</svg>
