<svg width="45" height="45" viewBox="0 0 45 45" fill="none" xmlns="http://www.w3.org/2000/svg">
<g id="ph:mask-sad-fill">
<path id="Vector" d="M38.1445 6.11733C37.7678 5.85854 37.3334 5.69586 36.8793 5.64347C36.4253 5.59108 35.9653 5.65056 35.5395 5.81675C33.0732 6.77651 28.0934 8.38667 22.5 8.38667C16.9066 8.38667 11.925 6.77651 9.45527 5.81675C9.02915 5.65133 8.56913 5.59227 8.11505 5.64468C7.66096 5.69709 7.22649 5.85938 6.84925 6.11751C6.47201 6.37564 6.16337 6.72183 5.95005 7.1261C5.73673 7.53037 5.62516 7.98054 5.625 8.43764V18.241C5.625 24.541 7.32129 30.4841 10.4027 34.9718C13.5949 39.623 17.891 42.1789 22.5 42.1789C27.109 42.1789 31.4051 39.6177 34.5973 34.9718C37.6787 30.4876 39.375 24.5445 39.375 18.2445V8.43764C39.3742 7.97996 39.2617 7.52939 39.0472 7.12504C38.8328 6.72069 38.5229 6.37478 38.1445 6.11733ZM11.6016 22.0308C11.3528 21.7511 11.2254 21.384 11.2474 21.0104C11.2582 20.8253 11.3054 20.6443 11.3862 20.4775C11.4671 20.3107 11.58 20.1615 11.7185 20.0383C11.857 19.9152 12.0184 19.8205 12.1935 19.7597C12.3685 19.699 12.5539 19.6733 12.7389 19.6841C13.1126 19.706 13.4622 19.8755 13.7109 20.1552C14.182 20.6826 15.2666 21.0939 16.1719 21.0939C17.0771 21.0939 18.1687 20.6808 18.6328 20.1552C18.756 20.0167 18.9052 19.9038 19.072 19.823C19.2388 19.7422 19.4198 19.695 19.6048 19.6841C19.7899 19.6733 19.9752 19.699 20.1503 19.7597C20.3254 19.8205 20.4868 19.9152 20.6253 20.0383C20.7638 20.1615 20.8767 20.3107 20.9575 20.4775C21.0384 20.6443 21.0855 20.8253 21.0964 21.0104C21.1073 21.1954 21.0816 21.3807 21.0208 21.5558C20.96 21.7309 20.8653 21.8923 20.7422 22.0308C19.7314 23.1523 17.898 23.9064 16.1719 23.9064C14.4457 23.9064 12.6123 23.1523 11.6016 22.0308ZM27.8824 33.1226C27.7548 33.3146 27.5819 33.4722 27.3789 33.5817C27.176 33.6911 26.9493 33.7489 26.7188 33.7501C26.4421 33.7506 26.1716 33.6686 25.9418 33.5146C24.7975 32.7552 23.9062 32.3439 22.5 32.3439C21.0938 32.3439 20.2025 32.7552 19.06 33.5146C18.7494 33.7134 18.3733 33.7823 18.0124 33.7065C17.6516 33.6306 17.335 33.4161 17.1308 33.1091C16.9266 32.8021 16.8511 32.4272 16.9207 32.0651C16.9902 31.703 17.1992 31.3827 17.5025 31.1732C18.9844 30.1871 20.4012 29.5314 22.5 29.5314C24.5988 29.5314 26.0156 30.1871 27.4975 31.1732C27.8079 31.3798 28.0236 31.7012 28.0971 32.0667C28.1706 32.4323 28.0959 32.8121 27.8895 33.1226H27.8824ZM33.3844 22.0308C32.3807 23.1523 30.5473 23.9064 28.8141 23.9064C27.0809 23.9064 25.2545 23.1523 24.2437 22.0308C23.995 21.7492 23.8684 21.3804 23.8916 21.0054C23.9148 20.6304 24.0861 20.28 24.3677 20.0313C24.6493 19.7826 25.0181 19.6559 25.3931 19.6791C25.7681 19.7024 26.1185 19.8736 26.3672 20.1552C26.8383 20.6826 27.9229 21.0939 28.8281 21.0939C29.7334 21.0939 30.825 20.6808 31.2891 20.1552C31.4122 20.0167 31.5614 19.9038 31.7282 19.823C31.895 19.7422 32.0761 19.695 32.2611 19.6841C32.4461 19.6733 32.6315 19.699 32.8065 19.7597C32.9816 19.8205 33.143 19.9152 33.2815 20.0383C33.42 20.1615 33.5329 20.3107 33.6138 20.4775C33.6946 20.6443 33.7418 20.8253 33.7526 21.0104C33.7635 21.1954 33.7378 21.3807 33.677 21.5558C33.6163 21.7309 33.5216 21.8923 33.3984 22.0308H33.3844Z" fill="#EFEFEF"/>
</g>
</svg>
