<svg width="25" height="25" viewBox="0 0 25 25" fill="none" xmlns="http://www.w3.org/2000/svg">
<g id="material-symbols:share">
<path id="Vector" d="M18.75 22.9168C17.8819 22.9168 17.1441 22.613 16.5365 22.0054C15.9288 21.3977 15.625 20.6599 15.625 19.7918C15.625 19.6703 15.6337 19.5443 15.651 19.4137C15.6684 19.2831 15.6944 19.1661 15.7292 19.0627L8.38542 14.7918C8.09028 15.0522 7.76042 15.2564 7.39583 15.4043C7.03125 15.5522 6.64931 15.6259 6.25 15.6252C5.38194 15.6252 4.6441 15.3213 4.03646 14.7137C3.42882 14.1061 3.125 13.3682 3.125 12.5002C3.125 11.6321 3.42882 10.8943 4.03646 10.2866C4.6441 9.67898 5.38194 9.37516 6.25 9.37516C6.64931 9.37516 7.03125 9.44912 7.39583 9.59704C7.76042 9.74496 8.09028 9.94877 8.38542 10.2085L15.7292 5.93766C15.6944 5.8335 15.6684 5.71648 15.651 5.58662C15.6337 5.45676 15.625 5.33072 15.625 5.2085C15.625 4.34044 15.9288 3.60259 16.5365 2.99495C17.1441 2.38732 17.8819 2.0835 18.75 2.0835C19.6181 2.0835 20.3559 2.38732 20.9635 2.99495C21.5712 3.60259 21.875 4.34044 21.875 5.2085C21.875 6.07655 21.5712 6.8144 20.9635 7.42204C20.3559 8.02968 19.6181 8.3335 18.75 8.3335C18.3507 8.3335 17.9687 8.25989 17.6042 8.11266C17.2396 7.96544 16.9097 7.76127 16.6146 7.50016L9.27083 11.771C9.30555 11.8752 9.3316 11.9925 9.34896 12.1231C9.36632 12.2536 9.375 12.3793 9.375 12.5002C9.375 12.6217 9.36632 12.7477 9.34896 12.8783C9.3316 13.0088 9.30555 13.1259 9.27083 13.2293L16.6146 17.5002C16.9097 17.2397 17.2396 17.0359 17.6042 16.8887C17.9687 16.7415 18.3507 16.6675 18.75 16.6668C19.6181 16.6668 20.3559 16.9706 20.9635 17.5783C21.5712 18.1859 21.875 18.9238 21.875 19.7918C21.875 20.6599 21.5712 21.3977 20.9635 22.0054C20.3559 22.613 19.6181 22.9168 18.75 22.9168Z" fill="#303064"/>
</g>
</svg>
