<svg width="25" height="25" viewBox="0 0 25 25" fill="none" xmlns="http://www.w3.org/2000/svg">
<g id="material-symbols:link">
<path id="Vector" d="M11.4585 17.7082H7.29183C5.85086 17.7082 4.62239 17.2002 3.60641 16.1842C2.59044 15.1682 2.0828 13.9401 2.0835 12.4998C2.0835 11.0589 2.59148 9.83039 3.60746 8.81442C4.62343 7.79845 5.85155 7.29081 7.29183 7.2915H11.4585V9.37484H7.29183C6.42377 9.37484 5.68593 9.67866 5.07829 10.2863C4.47065 10.8939 4.16683 11.6318 4.16683 12.4998C4.16683 13.3679 4.47065 14.1057 5.07829 14.7134C5.68593 15.321 6.42377 15.6248 7.29183 15.6248H11.4585V17.7082ZM8.3335 13.5415V11.4582H16.6668V13.5415H8.3335ZM13.5418 17.7082V15.6248H17.7085C18.5766 15.6248 19.3144 15.321 19.922 14.7134C20.5297 14.1057 20.8335 13.3679 20.8335 12.4998C20.8335 11.6318 20.5297 10.8939 19.922 10.2863C19.3144 9.67866 18.5766 9.37484 17.7085 9.37484H13.5418V7.2915H17.7085C19.1495 7.2915 20.3779 7.79949 21.3939 8.81546C22.4099 9.83144 22.9175 11.0596 22.9168 12.4998C22.9168 13.9408 22.4088 15.1693 21.3929 16.1853C20.3769 17.2012 19.1488 17.7089 17.7085 17.7082H13.5418Z" fill="#FAFAFA"/>
</g>
</svg>
