<svg width="21" height="21" viewBox="0 0 21 21" fill="none" xmlns="http://www.w3.org/2000/svg">
<g id="mdi:prize">
<g id="Group 49">
<g id="Vector">
<path fill-rule="evenodd" clip-rule="evenodd" d="M10.5 15.762L13.7496 16.5715V14.0783C12.7696 14.6663 11.6439 14.9692 10.5 14.9525C9.35613 14.9692 8.23044 14.6663 7.25044 14.0783V16.5715L10.5 15.762Z" fill="#1D43CA" fill-opacity="0.6"/>
<path fill-rule="evenodd" clip-rule="evenodd" d="M16.9991 8.47658C16.9818 9.25359 16.825 10.0212 16.5361 10.7432C16.2758 11.4777 15.8819 12.1582 15.3743 12.7507V19L10.5 17.381L5.62566 19V12.7507C4.57417 11.5741 3.9956 10.0521 4.00088 8.47658C3.98656 7.62708 4.14714 6.78368 4.4727 5.99843C4.79826 5.21318 5.2819 4.50276 5.89375 3.91103C6.4898 3.29589 7.20605 2.80901 7.9983 2.48043C8.79054 2.15186 9.64196 1.98856 10.5 2.00062C11.358 1.98856 12.2095 2.15186 13.0017 2.48043C13.7939 2.80901 14.5102 3.29589 15.1063 3.91103C15.7181 4.50276 16.2017 5.21318 16.5273 5.99843C16.8529 6.78368 17.0134 7.62708 16.9991 8.47658ZM13.7496 16.5715L10.5 15.762L7.25044 16.5715V14.0783C8.23044 14.6663 9.35613 14.9692 10.5 14.9525C11.6439 14.9692 12.7696 14.6663 13.7496 14.0783V16.5715ZM8.63164 3.96914C9.224 3.72692 9.85981 3.60797 10.5 3.61961C11.1402 3.60797 11.776 3.72692 12.3684 3.96914C12.9607 4.21137 13.4971 4.57175 13.9445 5.02813C14.4075 5.47446 14.7734 6.01094 15.0193 6.60419C15.2653 7.19745 15.3862 7.83479 15.3743 8.47658C15.3828 9.1143 15.2603 9.74701 15.0145 10.3358C14.7686 10.9247 14.4045 11.4572 13.9445 11.9007C13.4992 12.3615 12.9637 12.7264 12.3713 12.9728C11.7788 13.2193 11.1419 13.342 10.5 13.3335C9.85805 13.342 9.22117 13.2193 8.62872 12.9728C8.03626 12.7264 7.50082 12.3615 7.05547 11.9007C6.59552 11.4572 6.23142 10.9247 5.98554 10.3358C5.73966 9.74701 5.6172 9.1143 5.62566 8.47658C5.61385 7.83479 5.73469 7.19745 5.98067 6.60419C6.22664 6.01094 6.5925 5.47446 7.05547 5.02813C7.5029 4.57175 8.03928 4.21137 8.63164 3.96914Z" fill="#1D43CA" fill-opacity="0.6"/>
</g>
<path id="Vector_2" d="M8 8.5C8.00863 7.83964 8.2748 7.20876 8.74178 6.74178C9.20876 6.2748 9.83964 6.00863 10.5 6C11.1604 6.00863 11.7912 6.2748 12.2582 6.74178C12.7252 7.20876 12.9914 7.83964 13 8.5C12.9914 9.16036 12.7252 9.79124 12.2582 10.2582C11.7912 10.7252 11.1604 10.9914 10.5 11C9.83964 10.9914 9.20876 10.7252 8.74178 10.2582C8.2748 9.79124 8.00863 9.16036 8 8.5Z" fill="#FFD21C" fill-opacity="0.6"/>
</g>
</g>
</svg>
