<svg width="16" height="9" viewBox="0 0 16 9" fill="none" xmlns="http://www.w3.org/2000/svg">
<path id="Vector" d="M0.820957 0.952906L1.17927 1.29586L0.820956 0.952908C0.715372 1.06322 0.632502 1.19333 0.577391 1.33597C0.522276 1.47862 0.496089 1.6308 0.500472 1.78375C0.504854 1.9367 0.539709 2.08712 0.602861 2.22637C0.666007 2.36561 0.756121 2.49078 0.867743 2.59492L0.867847 2.59501L6.86766 8.18951C7.08464 8.39204 7.37069 8.50391 7.66683 8.50391C7.96288 8.50391 8.24884 8.39211 8.4658 8.1897C8.46587 8.18964 8.46594 8.18957 8.46601 8.18951L14.4643 2.59705C14.577 2.49412 14.6685 2.36993 14.7331 2.23137L14.28 2.01998L14.7331 2.23137C14.7983 2.09161 14.8349 1.9402 14.8404 1.78596C14.846 1.63172 14.8204 1.47805 14.7654 1.33395C14.7103 1.18986 14.627 1.05842 14.5205 0.947115C14.4141 0.835826 14.2867 0.74688 14.1458 0.685133L13.9451 1.14306L14.1458 0.685132C14.005 0.623391 13.8534 0.589986 13.6998 0.586682C13.5461 0.58338 13.3932 0.610236 13.2499 0.665837C13.1077 0.720974 12.9776 0.803371 12.867 0.908616L7.66687 5.75683L2.46592 0.906714C2.35431 0.802583 2.22337 0.721497 2.08072 0.667773L1.9045 1.13569L2.08072 0.667772C1.93808 0.614053 1.78631 0.58866 1.63402 0.592914C1.48173 0.597167 1.3316 0.630991 1.19217 0.692628C1.05273 0.75427 0.926528 0.842608 0.820957 0.952906Z" fill="#3E149B" stroke="#3E149B"/>
</svg>
