<svg width="19" height="19" viewBox="0 0 19 19" fill="none" xmlns="http://www.w3.org/2000/svg">
<g id="ph:money-duotone">
<g id="Group">
<path id="Vector" opacity="0.2" d="M11.875 9.5C11.875 9.96973 11.7357 10.4289 11.4747 10.8195C11.2138 11.21 10.8428 11.5145 10.4089 11.6942C9.9749 11.874 9.49736 11.921 9.03666 11.8294C8.57596 11.7377 8.15277 11.5115 7.82062 11.1794C7.48847 10.8472 7.26227 10.424 7.17063 9.96334C7.07899 9.50263 7.12603 9.0251 7.30579 8.59113C7.48554 8.15715 7.78995 7.78623 8.18052 7.52526C8.57109 7.26429 9.03027 7.125 9.5 7.125C10.1299 7.125 10.734 7.37522 11.1794 7.82062C11.6248 8.26602 11.875 8.87011 11.875 9.5ZM14.8438 4.75C14.9695 5.49168 15.3228 6.17589 15.8547 6.70782C16.3866 7.23975 17.0708 7.59304 17.8125 7.71875V4.75H14.8438ZM14.8438 14.25H17.8125V11.2812C17.0708 11.407 16.3866 11.7603 15.8547 12.2922C15.3228 12.8241 14.9695 13.5083 14.8438 14.25ZM1.1875 11.2812V14.25H4.15625C4.03054 13.5083 3.67725 12.8241 3.14532 12.2922C2.61339 11.7603 1.92918 11.407 1.1875 11.2812ZM1.1875 7.71875C1.92918 7.59304 2.61339 7.23975 3.14532 6.70782C3.67725 6.17589 4.03054 5.49168 4.15625 4.75H1.1875V7.71875Z" fill="#1B7333" fill-opacity="0.6"/>
<path id="Vector_2" d="M9.5 6.53125C8.91284 6.53125 8.33886 6.70536 7.85065 7.03157C7.36244 7.35779 6.98193 7.82144 6.75723 8.36391C6.53253 8.90638 6.47374 9.50329 6.58829 10.0792C6.70284 10.6551 6.98559 11.184 7.40078 11.5992C7.81596 12.0144 8.34494 12.2972 8.92083 12.4117C9.49671 12.5263 10.0936 12.4675 10.6361 12.2428C11.1786 12.0181 11.6422 11.6376 11.9684 11.1493C12.2946 10.6611 12.4688 10.0872 12.4688 9.5C12.4688 8.71264 12.156 7.95753 11.5992 7.40078C11.0425 6.84403 10.2874 6.53125 9.5 6.53125ZM9.5 11.2812C9.1477 11.2812 8.80332 11.1768 8.51039 10.9811C8.21747 10.7853 7.98916 10.5071 7.85434 10.1817C7.71952 9.85617 7.68425 9.49802 7.75298 9.1525C7.82171 8.80697 7.99135 8.48958 8.24047 8.24047C8.48958 7.99135 8.80697 7.82171 9.1525 7.75298C9.49802 7.68425 9.85617 7.71952 10.1817 7.85434C10.5071 7.98916 10.7853 8.21747 10.9811 8.51039C11.1768 8.80332 11.2812 9.1477 11.2812 9.5C11.2812 9.97242 11.0936 10.4255 10.7595 10.7595C10.4255 11.0936 9.97242 11.2812 9.5 11.2812ZM17.8125 4.15625H1.1875C1.03003 4.15625 0.879005 4.21881 0.767655 4.33016C0.656306 4.44151 0.59375 4.59253 0.59375 4.75V14.25C0.59375 14.4075 0.656306 14.5585 0.767655 14.6698C0.879005 14.7812 1.03003 14.8438 1.1875 14.8438H17.8125C17.97 14.8438 18.121 14.7812 18.2323 14.6698C18.3437 14.5585 18.4062 14.4075 18.4062 14.25V4.75C18.4062 4.59253 18.3437 4.44151 18.2323 4.33016C18.121 4.21881 17.97 4.15625 17.8125 4.15625ZM1.78125 5.34375H3.3673C3.06107 6.05593 2.49343 6.62357 1.78125 6.9298V5.34375ZM1.78125 13.6562V12.0702C2.49343 12.3764 3.06107 12.9441 3.3673 13.6562H1.78125ZM17.2188 13.6562H15.6327C15.9389 12.9441 16.5066 12.3764 17.2188 12.0702V13.6562ZM17.2188 10.81C16.5445 11.0093 15.9309 11.3742 15.4338 11.8713C14.9367 12.3684 14.5718 12.982 14.3725 13.6562H4.62754C4.42819 12.982 4.06333 12.3684 3.5662 11.8713C3.06906 11.3742 2.45545 11.0093 1.78125 10.81V8.19004C2.45545 7.99069 3.06906 7.62583 3.5662 7.1287C4.06333 6.63156 4.42819 6.01795 4.62754 5.34375H14.3725C14.5718 6.01795 14.9367 6.63156 15.4338 7.1287C15.9309 7.62583 16.5445 7.99069 17.2188 8.19004V10.81ZM17.2188 6.9298C16.5066 6.62357 15.9389 6.05593 15.6327 5.34375H17.2188V6.9298Z" fill="#1B7333" fill-opacity="0.6"/>
</g>
</g>
</svg>
