<svg width="24" height="24" viewBox="0 0 24 24" fill="none" xmlns="http://www.w3.org/2000/svg">
<g id="Frame 198">
<path id="Vector" d="M14.8469 18.7503V23.2499C14.8365 23.66 14.4937 23.99 14.0699 24H9.39921C9.1946 23.9952 8.99973 23.9149 8.85491 23.7756C8.71009 23.6364 8.62639 23.4489 8.62112 23.2519V18.7513C8.63151 18.3413 8.97433 18.0123 9.39921 18.0023H14.074C14.4999 18.0123 14.8428 18.3423 14.8532 18.7513L14.8469 18.7503ZM21 7.50194C21.0012 8.68831 20.6548 9.85097 20.0006 10.8564L20.0162 10.8304C19.7175 11.2451 19.3606 11.6181 18.9556 11.9385L18.9452 11.9465C18.6117 12.2285 18.2471 12.4966 17.8627 12.7406L17.8253 12.7626C17.5393 12.9313 17.1431 13.153 16.6368 13.4277C16.1017 13.7214 15.6475 14.1343 15.3123 14.6318L15.303 14.6458C15.0116 15.0063 14.8267 15.4358 14.768 15.889L14.7669 15.901C14.7635 16.1245 14.6806 16.3402 14.5321 16.5121L14.5332 16.5101C14.4731 16.5968 14.3924 16.6684 14.2976 16.7188C14.2029 16.7693 14.097 16.7972 13.9888 16.8001H9.31403C9.20627 16.7927 9.10273 16.7568 9.0149 16.6962C8.92706 16.6357 8.85837 16.5529 8.81642 16.4571L8.81538 16.4531C8.68367 16.2407 8.61304 15.9983 8.61073 15.751V14.9059C8.6338 13.8088 9.08604 12.7605 9.87708 11.9705L9.87604 11.9715C10.6307 11.1228 11.5627 10.4367 12.6113 9.95825L12.6612 9.93824C13.2755 9.70066 13.8321 9.34349 14.2963 8.88911L14.2974 8.88811C14.638 8.48624 14.8116 7.97697 14.7846 7.45893V7.46393C14.7678 7.17959 14.6768 6.90391 14.5201 6.66234C14.3635 6.42077 14.1461 6.2211 13.8881 6.08176L13.8787 6.07776C13.2622 5.67183 12.529 5.46231 11.7823 5.47869H11.7854C11.0374 5.45024 10.2982 5.64289 9.66724 6.03075L9.68178 6.02175C8.9144 6.65285 8.22398 7.36584 7.62383 8.14702L7.59786 8.18202C7.52841 8.27377 7.43769 8.34865 7.33292 8.40074C7.22814 8.45282 7.1122 8.48067 6.99429 8.48206C6.81925 8.47675 6.64931 8.42406 6.50395 8.33004L6.50707 8.33204L3.31366 5.98875C3.1547 5.87737 3.04673 5.71105 3.01239 5.52469L3.01135 5.52069C2.97854 5.33806 3.01742 5.1502 3.12043 4.99362L3.11836 4.99662C4.83972 1.99725 8.10377 0 11.854 0C11.961 0 12.067 0.00200025 12.1729 0.00500063H12.1573C13.2517 0.0102439 14.3352 0.214519 15.3508 0.607076L15.2915 0.587073C16.3255 0.963757 17.2919 1.4939 18.1556 2.15827L18.1349 2.14227C18.9695 2.78843 19.6636 3.58677 20.1772 4.49156L20.198 4.53257C20.6998 5.38967 20.9958 6.4138 20.9969 7.50394L21 7.50194Z" fill="white" fill-opacity="0.6"/>
</g>
</svg>
