<svg width="16" height="16" viewBox="0 0 16 16" fill="none" xmlns="http://www.w3.org/2000/svg">
<g id="octicon:search-24">
<path id="Vector" d="M6.83326 1.33334C7.87856 1.33323 8.90226 1.631 9.78441 2.19176C10.6666 2.75253 11.3707 3.55308 11.8142 4.49962C12.2577 5.44616 12.4224 6.49949 12.2888 7.53623C12.1552 8.57296 11.7289 9.55016 11.0599 10.3533L14.8533 14.1467C14.9191 14.2078 14.9672 14.2855 14.9925 14.3717C15.0179 14.4579 15.0195 14.5493 14.9973 14.6363C14.975 14.7233 14.9297 14.8027 14.8661 14.8661C14.8025 14.9296 14.723 14.9747 14.6359 14.9967C14.549 15.019 14.4577 15.0174 14.3716 14.9922C14.2855 14.967 14.2078 14.919 14.1466 14.8533L10.3533 11.06C9.67448 11.6252 8.86957 12.0186 8.00661 12.2069C7.14365 12.3952 6.24802 12.3729 5.3955 12.1419C4.54298 11.9109 3.75863 11.4779 3.10881 10.8797C2.45898 10.2815 1.9628 9.53551 1.66223 8.70496C1.36166 7.8744 1.26554 6.98368 1.38201 6.10812C1.49848 5.23256 1.8241 4.39793 2.33134 3.67483C2.83858 2.95173 3.51251 2.36144 4.29612 1.95387C5.07974 1.5463 5.94999 1.33346 6.83326 1.33334ZM2.33326 6.83334C2.33326 7.42429 2.44966 8.00945 2.6758 8.55542C2.90195 9.10138 3.23342 9.59746 3.65128 10.0153C4.06914 10.4332 4.56522 10.7647 5.11118 10.9908C5.65715 11.2169 6.24231 11.3333 6.83326 11.3333C7.42421 11.3333 8.00937 11.2169 8.55534 10.9908C9.1013 10.7647 9.59738 10.4332 10.0152 10.0153C10.4331 9.59746 10.7646 9.10138 10.9907 8.55542C11.2169 8.00945 11.3333 7.42429 11.3333 6.83334C11.3333 5.63987 10.8592 4.49528 10.0152 3.65136C9.17133 2.80745 8.02673 2.33334 6.83326 2.33334C5.63979 2.33334 4.49519 2.80745 3.65128 3.65136C2.80737 4.49528 2.33326 5.63987 2.33326 6.83334Z" fill="#1F1F1F"/>
</g>
</svg>
