<svg width="16" height="16" viewBox="0 0 16 16" fill="none" xmlns="http://www.w3.org/2000/svg">
<g id="codicon:sign-in">
<path id="Vector" fill-rule="evenodd" clip-rule="evenodd" d="M11.02 3.77L11.03 3.76L12.02 4.75V2.5L11.52 2H2.52L2.01 2.5V2.993L2 3V13.29L2.36 13.75L7.36 15.47L8 15V14H11.52L12.02 13.5V11.25L11.02 12.25V13H8V4.71L7.67 4.25L4.036 3H11.02V3.77ZM7 14.28L3 12.94V3.72L7 5.06V14.28ZM10.09 7.53H15.06V8.53H10.13L11.72 10.13L11.01 10.83L8.54 8.37V7.66L11.03 5.18L11.73 5.88L10.09 7.53Z" fill="#111111"/>
</g>
</svg>
