<svg width="26" height="26" viewBox="0 0 26 26" fill="none" xmlns="http://www.w3.org/2000/svg">
<g id="material-symbols:cancel">
<path id="Vector" d="M9.10008 18.4165L13.0001 14.5165L16.9001 18.4165L18.4167 16.8998L14.5167 12.9998L18.4167 9.09984L16.9001 7.58317L13.0001 11.4832L9.10008 7.58317L7.58342 9.09984L11.4834 12.9998L7.58342 16.8998L9.10008 18.4165ZM13.0001 23.8332C11.5015 23.8332 10.0931 23.5486 8.77508 22.9795C7.45703 22.4104 6.3105 21.6387 5.3355 20.6644C4.3605 19.6894 3.5888 18.5429 3.02041 17.2248C2.45203 15.9068 2.16747 14.4984 2.16675 12.9998C2.16675 11.5012 2.4513 10.0929 3.02041 8.77484C3.58953 7.45678 4.36122 6.31025 5.3355 5.33525C6.3105 4.36025 7.45703 3.58856 8.77508 3.02017C10.0931 2.45178 11.5015 2.16723 13.0001 2.1665C14.4987 2.1665 15.907 2.45106 17.2251 3.02017C18.5431 3.58928 19.6897 4.36098 20.6647 5.33525C21.6397 6.31025 22.4117 7.45678 22.9808 8.77484C23.5499 10.0929 23.8341 11.5012 23.8334 12.9998C23.8334 14.4984 23.5489 15.9068 22.9797 17.2248C22.4106 18.5429 21.6389 19.6894 20.6647 20.6644C19.6897 21.6394 18.5431 22.4115 17.2251 22.9806C15.907 23.5497 14.4987 23.8339 13.0001 23.8332Z" fill="#9B9BD4"/>
</g>
</svg>
