<svg width="160" height="160" viewBox="0 0 160 160" fill="none" xmlns="http://www.w3.org/2000/svg">
<g id="teenyicons:pie-chart-solid" clip-path="url(#clip0_1185_218)">
<path id="Vector" d="M39.0721 11.8487C49.7392 5.4385 61.7599 1.62336 74.1661 0.707128V80C74.1662 80.7758 74.321 81.5437 74.6215 82.2589C74.9216 82.9732 75.361 83.6205 75.9141 84.1631C75.9147 84.1638 75.9154 84.1644 75.9161 84.1651L131.939 140.198C122.517 148.322 111.319 154.123 99.2437 157.132C86.995 160.185 74.1956 160.276 61.9045 157.399C49.6134 154.523 38.184 148.761 28.562 140.59C18.94 132.419 11.4021 122.074 6.57184 110.412C1.74162 98.749 -0.242008 86.1039 0.785104 73.5225C1.81222 60.9412 5.82054 48.7852 12.4784 38.0605C19.1363 27.3359 28.2523 18.3508 39.0721 11.8487Z" fill="#6C6969" stroke="black"/>
<path id="Vector_2" d="M159.501 79.9993V80.0007C159.529 99.0805 152.668 117.523 140.189 131.94L89.8474 81.5983L153.547 49.7537C157.492 59.347 159.515 69.6232 159.501 79.9993ZM121.8 12.3665C132.679 19.0904 141.772 28.3385 148.311 39.3233L85.834 70.5616V0.70694C98.5832 1.64401 110.921 5.6425 121.8 12.3665Z" fill="#ACACAC" stroke="black"/>
<path id="Vector_3" d="M121.466 12.1958C132.345 18.9198 141.438 28.1678 147.977 39.1526L85.5 70.391V0.536285C98.2492 1.47336 110.587 5.47184 121.466 12.1958Z" fill="white" stroke="black"/>
</g>
<defs>
<clipPath id="clip0_1185_218">
<rect width="160" height="160" fill="white"/>
</clipPath>
</defs>
</svg>
