<svg width="20" height="20" viewBox="0 0 20 20" fill="none" xmlns="http://www.w3.org/2000/svg">
<g id="uiw:up" clip-path="url(#clip0_39_638)">
<path id="Vector" d="M10.1061 12.0655C13.3545 8.79828 15.5345 6.62 16.643 5.53371L16.6429 5.53361L16.6516 5.52548C16.6578 5.51972 16.6655 5.51224 16.6747 5.50333C16.7599 5.42064 16.9716 5.21507 17.2474 5.1266C17.4201 5.07119 17.6184 5.05779 17.8288 5.11883C18.033 5.17807 18.2179 5.29838 18.3865 5.4613C18.6243 5.69083 18.7962 5.99117 18.7828 6.35296C18.7699 6.69951 18.59 6.9957 18.3646 7.23592L18.359 7.24191L18.3532 7.24771L10.9092 14.6777L10.9093 14.6778L10.901 14.6858C10.6847 14.8919 10.3962 15.0046 10.0978 14.9999C9.80331 15.0008 9.51861 14.8936 9.29784 14.6984L9.28405 14.6863L9.2712 14.6731L1.8182 7.03809L1.78006 6.99902L1.75125 6.95265C1.59867 6.70699 1.49399 6.43105 1.50297 6.13741C1.51236 5.83081 1.64376 5.56727 1.84942 5.35831C2.05159 5.1524 2.3099 5.0136 2.61575 4.9996C2.90981 4.98614 3.18376 5.09108 3.42413 5.24381L3.47312 5.27493L3.51367 5.31645L10.1061 12.0655Z" fill="#9494BA" stroke="#9494BA"/>
</g>
<defs>
<clipPath id="clip0_39_638">
<rect width="20" height="20" fill="white" transform="matrix(1 -1.39876e-07 -5.46392e-08 -1 0 20)"/>
</clipPath>
</defs>
</svg>
