<svg width="20" height="20" viewBox="0 0 20 20" fill="none" xmlns="http://www.w3.org/2000/svg">
<g id="uiw:up">
<path id="Vector" d="M9.89388 7.93453C6.64547 11.2017 4.4655 13.38 3.35696 14.4663L3.35706 14.4664L3.34837 14.4745C3.34221 14.4803 3.3345 14.4878 3.32531 14.4967C3.24014 14.5794 3.02838 14.7849 2.75263 14.8734C2.57991 14.9288 2.38157 14.9422 2.17117 14.8812C1.96701 14.8219 1.7821 14.7016 1.61353 14.5387C1.37571 14.3092 1.20383 14.0088 1.21723 13.647C1.23006 13.3005 1.41 13.0043 1.63536 12.7641L1.64098 12.7581L1.64679 12.7523L9.09079 5.32229L9.0907 5.32219L9.09904 5.31424C9.31527 5.10815 9.60377 4.99541 9.90222 5.00014C10.1967 4.9992 10.4814 5.1064 10.7022 5.30155L10.7159 5.31374L10.7288 5.32691L18.1818 12.9619L18.2199 13.001L18.2487 13.0474C18.4013 13.293 18.506 13.569 18.497 13.8626C18.4876 14.1692 18.3562 14.4327 18.1506 14.6417C17.9484 14.8476 17.6901 14.9864 17.3842 15.0004C17.0902 15.0139 16.8162 14.9089 16.5759 14.7562L16.5269 14.7251L16.4863 14.6836L9.89388 7.93453Z" fill="#9494BA" stroke="#9494BA"/>
</g>
</svg>
