<svg width="17" height="24" viewBox="0 0 17 24" fill="none" xmlns="http://www.w3.org/2000/svg">
<path id="Vector" d="M11.1888 18.748V23.247C11.1789 23.657 10.8552 23.987 10.4549 23.997H6.0437C5.85046 23.9922 5.66642 23.9119 5.52964 23.7726C5.39286 23.6334 5.31381 23.446 5.30883 23.249V18.749C5.31865 18.339 5.64242 18.01 6.0437 18H10.4588C10.8611 18.01 11.1848 18.34 11.1946 18.749L11.1888 18.748ZM17 7.501C17.0012 8.68723 16.674 9.84973 16.0561 10.855L16.0709 10.829C15.7888 11.2437 15.4517 11.6166 15.0691 11.937L15.0593 11.945C14.7444 12.227 14.4 12.495 14.037 12.739L14.0017 12.761C13.7315 12.9297 13.3574 13.1513 12.8792 13.426C12.3739 13.7197 11.9449 14.1325 11.6283 14.63L11.6195 14.644C11.3443 15.0044 11.1697 15.4338 11.1142 15.887L11.1132 15.899C11.11 16.1225 11.0317 16.3381 10.8915 16.51L10.8925 16.508C10.8357 16.5947 10.7594 16.6663 10.67 16.7167C10.5805 16.7672 10.4805 16.7951 10.3783 16.798H5.96325C5.86148 16.7906 5.76369 16.7547 5.68074 16.6942C5.59778 16.6336 5.5329 16.5508 5.49329 16.455L5.49231 16.451C5.36791 16.2386 5.30121 15.9963 5.29902 15.749V14.904C5.32081 13.8071 5.74793 12.7589 6.49502 11.969L6.49404 11.97C7.20673 11.1214 8.08699 10.4354 9.07736 9.957L9.12445 9.937C9.7046 9.69945 10.2304 9.34232 10.6688 8.888L10.6697 8.887C10.9915 8.48518 11.1554 7.97598 11.1299 7.458V7.463C11.114 7.17869 11.0281 6.90305 10.8801 6.66151C10.7321 6.41997 10.5268 6.22032 10.2832 6.081L10.2743 6.077C9.6921 5.67113 8.99962 5.46162 8.29442 5.478H8.29736C7.59087 5.44956 6.89276 5.64219 6.29683 6.03L6.31057 6.021C5.58582 6.65202 4.93376 7.36492 4.36695 8.146L4.34242 8.181C4.27683 8.27273 4.19115 8.34761 4.0922 8.39969C3.99325 8.45177 3.88374 8.47961 3.77238 8.481C3.60707 8.47569 3.44657 8.42301 3.30929 8.329L3.31223 8.331L0.296233 5.988C0.146107 5.87664 0.044133 5.71034 0.0117046 5.524L0.0107235 5.52C-0.0202631 5.33739 0.0164542 5.14956 0.113742 4.993L0.11178 4.996C1.73751 1.997 4.82023 0 8.36212 0C8.46317 0 8.56325 0.002 8.66332 0.005H8.64861C9.68217 0.0102426 10.7055 0.214492 11.6646 0.607L11.6087 0.587C12.5852 0.963636 13.4979 1.49372 14.3137 2.158L14.294 2.142C15.0823 2.78808 15.7378 3.58632 16.2229 4.491L16.2426 4.532C16.7164 5.389 16.9961 6.413 16.9971 7.503L17 7.501Z" fill="#111111"/>
</svg>
