<svg width="12" height="15" viewBox="0 0 12 15" fill="none" xmlns="http://www.w3.org/2000/svg">
<path id="Vector" d="M7.89794 11.719V14.5312C7.89102 14.7875 7.66247 14.9937 7.37991 15H4.26614C4.12973 14.997 3.99982 14.9468 3.90327 14.8598C3.80673 14.7727 3.75092 14.6556 3.74741 14.5324V11.7196C3.75434 11.4633 3.98288 11.2577 4.26614 11.2514H7.38268C7.66663 11.2577 7.89517 11.4639 7.9021 11.7196L7.89794 11.719ZM12 4.68871C12.0008 5.4302 11.7699 6.15685 11.3338 6.78522L11.3441 6.76897C11.145 7.02821 10.9071 7.26129 10.637 7.46156L10.6301 7.46656C10.4078 7.64283 10.1647 7.81035 9.90846 7.96287L9.88352 7.97662C9.69284 8.08205 9.42874 8.22061 9.09123 8.3923C8.73449 8.57587 8.43169 8.83395 8.20821 9.14489L8.20198 9.15364C8.00772 9.37891 7.88449 9.64736 7.84531 9.93062L7.84462 9.93812C7.84234 10.0778 7.7871 10.2126 7.6881 10.32L7.68879 10.3188C7.64875 10.373 7.59491 10.4177 7.53176 10.4493C7.46862 10.4808 7.39802 10.4982 7.32589 10.5001H4.20935C4.13751 10.4955 4.06849 10.473 4.00993 10.4352C3.95138 10.3973 3.90558 10.3456 3.87761 10.2857L3.87692 10.2832C3.78912 10.1504 3.74203 9.99896 3.74049 9.84436V9.31616C3.75587 8.63049 4.05736 7.97531 4.58472 7.48156L4.58403 7.48218C5.0871 6.95172 5.70846 6.52296 6.40755 6.2239L6.44079 6.2114C6.85031 6.06291 7.22143 5.83968 7.53089 5.55569L7.53158 5.55507C7.75867 5.3039 7.87441 4.98561 7.85639 4.66183V4.66496C7.84519 4.48724 7.78456 4.31494 7.6801 4.16396C7.57563 4.01298 7.43071 3.88819 7.25871 3.8011L7.25248 3.7986C6.84149 3.5449 6.35268 3.41394 5.85488 3.42418H5.85696C5.35826 3.4064 4.86548 3.52681 4.44482 3.76922L4.45452 3.7636C3.94293 4.15803 3.48266 4.60365 3.08255 5.09189L3.06524 5.11376C3.01894 5.1711 2.95846 5.21791 2.88861 5.25046C2.81876 5.28301 2.74146 5.30042 2.66286 5.30129C2.54617 5.29797 2.43287 5.26504 2.33597 5.20628L2.33805 5.20753L0.209105 3.74297C0.103135 3.67336 0.0311527 3.56941 0.00826207 3.45293L0.00756951 3.45043C-0.0143034 3.33629 0.0116147 3.21888 0.0802887 3.12102L0.0789035 3.12289C1.22648 1.24828 3.40252 0 5.90267 0C5.974 0 6.04465 0.00125016 6.11529 0.00312539H6.1049C6.83447 0.00640241 7.55679 0.134074 8.23384 0.379422L8.19436 0.366921C8.88369 0.602348 9.52795 0.933689 10.1038 1.34892L10.0899 1.33892C10.6463 1.74277 11.109 2.24173 11.4515 2.80723L11.4653 2.83285C11.7998 3.36855 11.9972 4.00863 11.9979 4.68996L12 4.68871Z" fill="#80809A"/>
</svg>
