<svg width="22" height="18" viewBox="0 0 22 18" fill="none" xmlns="http://www.w3.org/2000/svg">
<path id="Vector" d="M14.3014 4.96663C14.9898 5.43625 15.5485 6.04522 15.9332 6.74529C16.318 7.44536 16.5184 8.2173 16.5184 9C16.5184 9.7827 16.318 10.5547 15.9332 11.2547C15.5485 11.9548 14.9898 12.5637 14.3014 13.0334M17.2943 1.9416C18.4515 2.79229 19.3848 3.86768 20.026 5.08898C20.6672 6.31028 21 7.64656 21 9C21 10.3534 20.6672 11.6897 20.026 12.911C19.3848 14.1323 18.4515 15.2077 17.2943 16.0584M4.32536 12.025H2.10845C1.81447 12.025 1.53253 11.9188 1.32466 11.7297C1.11678 11.5406 1 11.2841 1 11.0167V6.98331C1 6.71588 1.11678 6.45942 1.32466 6.27032C1.53253 6.08122 1.81447 5.97497 2.10845 5.97497H4.32536L8.20495 1.43743C8.30183 1.26625 8.46283 1.13223 8.65885 1.0596C8.85487 0.986966 9.07299 0.980509 9.27378 1.0414C9.47458 1.10228 9.64481 1.2265 9.75372 1.3916C9.86263 1.55669 9.90304 1.75178 9.86763 1.9416V16.0584C9.90304 16.2482 9.86263 16.4433 9.75372 16.6084C9.64481 16.7735 9.47458 16.8977 9.27378 16.9586C9.07299 17.0195 8.85487 17.013 8.65885 16.9404C8.46283 16.8678 8.30183 16.7337 8.20495 16.5626L4.32536 12.025Z" stroke="white" stroke-width="2" stroke-linecap="round" stroke-linejoin="round"/>
</svg>
